<svg xmlns="http://www.w3.org/2000/svg" width="28.998" height="29.131" viewBox="0 0 28.998 29.131">
  <path id="Orion_men" d="M24.585,24.863c-4.62-.887-4.853-2.333-4.853-3.266v-.56a8.819,8.819,0,0,0,2.66-4.106h.047c1.4,0,1.773-2.94,1.773-3.406s.047-2.193-1.4-2.193c2.986-8.4-5.18-11.759-11.339-7.466-2.52,0-2.753,3.733-1.82,7.466-1.447,0-1.4,1.773-1.4,2.193s.327,3.406,1.773,3.406a8.435,8.435,0,0,0,2.193,4.2v.56c0,.933.233,2.333-4.433,3.173A7.454,7.454,0,0,0,2,30H30a6.813,6.813,0,0,0-5.413-5.133Z" transform="translate(-1.5 -1.364)" fill="#f5faff" stroke="#016ddc" stroke-linecap="round" stroke-linejoin="round" stroke-miterlimit="10" stroke-width="1"/>
</svg>
