<svg xmlns="http://www.w3.org/2000/svg" width="41" height="33.265" viewBox="0 0 41 33.265">
  <g id="Orion_partly-cloudy" transform="translate(-1 -7)">
    <path id="layer2" d="M40.1,33.177a8.45,8.45,0,0,0-16.25,2.665H23.2a5.2,5.2,0,1,0,0,10.4H40.1a6.5,6.5,0,1,0,0-13Z" transform="translate(-5.6 -6.977)" fill="#cdf0f0"/>
    <path id="layer1" d="M27,26.171a6.5,6.5,0,1,0-4.485,6.5A8.45,8.45,0,0,1,27,26.171Z" transform="translate(-4.204 -4.196)" fill="#fc0"/>
    <path id="opacity" d="M23.915,35.51a8.45,8.45,0,0,1,4.485-6.5,6.5,6.5,0,0,0-.13-.91,8.45,8.45,0,0,0-7.6,7.605l1.235.13a6.5,6.5,0,0,0,2.015-.325Zm-.065,1.625a9.1,9.1,0,0,1,.065-1.235H23.2a5.2,5.2,0,1,0,0,10.4h9.75a9.1,9.1,0,0,1-9.1-9.165Z" transform="translate(-5.6 -7.035)" fill="#000064" opacity="0.1"/>
    <path id="opacity-2" data-name="opacity" d="M42.25,33.712a6.565,6.565,0,0,0-2.275,1.625l1.5-.195a7.8,7.8,0,0,1,7.67,9.295,6.5,6.5,0,0,0-4.03-11.245h-.39A8.45,8.45,0,0,0,31.2,30.2a11.5,11.5,0,0,1,10.985,3.51Z" transform="translate(-10.22 -6.992)" fill="#fff" opacity="0.5"/>
    <path id="stroke" d="M18.315,28.475a6.5,6.5,0,1,1,4.485-6.5M16.3,8v3.9M5.9,22.3H2M6.16,12.225l2.795,2.73m17.485-2.73-2.795,2.73M8.955,29.645,6.16,32.44" fill="none" stroke="#2e4369" stroke-linecap="round" stroke-linejoin="round" stroke-width="2"/>
    <path id="stroke-2" data-name="stroke" d="M40.1,33.177a8.45,8.45,0,0,0-16.25,2.665H23.2a5.2,5.2,0,1,0,0,10.4H40.1a6.5,6.5,0,1,0,0-13Z" transform="translate(-5.6 -6.977)" fill="none" stroke="#2e4369" stroke-linecap="round" stroke-linejoin="round" stroke-width="2"/>
  </g>
</svg>
